<svg width="38" height="38" viewBox="0 0 38 38" fill="none" xmlns="http://www.w3.org/2000/svg">
<g clip-path="url(#clip0_1609_5017)">
<path d="M16.0932 15.0936C19.1795 12.0073 19.1609 6.98486 16.0517 3.87564C12.9425 0.766411 7.92002 0.747824 4.83372 3.83412C1.74742 6.92042 1.76601 11.9429 4.87524 15.0521C7.98446 18.1613 13.0069 18.1799 16.0932 15.0936Z" fill="#F4F9F7"/>
<path d="M35.9083 8.69033C36.2691 9.924 36.3153 11.2262 36.0425 12.4777C34.8611 17.859 32.2524 22.8132 28.4895 26.8214C24.7266 30.8297 19.9478 33.7447 14.6535 35.2613L14.5798 35.2818C14.3669 35.3419 14.154 35.4004 13.9419 35.4549C11.9904 35.8883 9.94127 35.5439 8.22839 34.4945C6.5155 33.4452 5.27337 31.7734 4.76503 29.8331C4.25669 27.8928 4.52207 25.8365 5.50496 24.0995C6.48784 22.3625 8.11107 21.0813 10.0309 20.5271L10.2318 20.4726L10.2686 20.4615C12.8747 19.7215 15.2335 18.3035 17.1055 16.3516C18.9774 14.3997 20.2958 11.9834 20.9269 9.34802C20.9695 9.1735 21.0073 8.99737 21.0411 8.82361C21.4608 7.19092 22.4063 5.74528 23.7322 4.70905C25.058 3.67282 26.6908 3.10339 28.3794 3.08834C30.068 3.07328 31.7189 3.61344 33.0782 4.62573C34.4375 5.63802 35.4298 7.06637 35.9027 8.69111L35.9083 8.69033Z" fill="#7EC1FF"/>
</g>
<defs>
<clipPath id="clip0_1609_5017">
<rect width="38" height="38" fill="white"/>
</clipPath>
</defs>
</svg>
