<svg width="16" height="15" viewBox="0 0 16 15" fill="none" xmlns="http://www.w3.org/2000/svg">
<path d="M9.97307 3.19117H3.47142L4.13078 2.21135C4.21873 2.08174 4.2697 1.93061 4.27821 1.7742C4.28673 1.61779 4.25248 1.46202 4.17913 1.32362C4.10578 1.18522 3.9961 1.06942 3.86189 0.988658C3.72768 0.907896 3.574 0.865227 3.41736 0.865234H3.41556C3.27467 0.865225 3.13558 0.896908 3.00859 0.95794C2.8816 1.01897 2.76996 1.10779 2.68195 1.21781L0.653294 3.75401C0.589463 3.8338 0.554688 3.93294 0.554688 4.03512C0.554687 4.1373 0.589463 4.23644 0.653294 4.31623L2.68217 6.85226C2.77018 6.96229 2.88181 7.05112 3.0088 7.11216C3.13579 7.1732 3.27489 7.20489 3.41579 7.20489H3.41736C3.57399 7.20489 3.72766 7.16222 3.86186 7.08146C3.99607 7.0007 4.10573 6.88491 4.17908 6.74652C4.25243 6.60812 4.28669 6.45236 4.27818 6.29597C4.26967 6.13957 4.21871 5.98844 4.13078 5.85883L3.47125 4.87867H9.97307C10.9768 4.87867 11.9394 5.27739 12.6491 5.98713C13.3589 6.69686 13.7576 7.65946 13.7576 8.66317C13.7576 9.66688 13.3589 10.6295 12.6491 11.3392C11.9394 12.0489 10.9768 12.4477 9.97307 12.4477H8.13286C7.90908 12.4477 7.69447 12.5366 7.53623 12.6948C7.378 12.853 7.28911 13.0676 7.28911 13.2914C7.28911 13.5152 7.378 13.7298 7.53623 13.888C7.69447 14.0463 7.90908 14.1352 8.13286 14.1352H9.97307C11.4243 14.1352 12.8162 13.5587 13.8424 12.5325C14.8686 11.5063 15.4451 10.1144 15.4451 8.66317C15.4451 7.21191 14.8686 5.82008 13.8424 4.79388C12.8162 3.76768 11.4243 3.19117 9.97307 3.19117Z" fill="#171719"/>
</svg>
