<svg width="16" height="15" viewBox="0 0 16 15" fill="none" xmlns="http://www.w3.org/2000/svg">
<path d="M6.02693 3.19117H12.5286L11.8692 2.21135C11.7813 2.08174 11.7303 1.93061 11.7218 1.7742C11.7133 1.61779 11.7475 1.46202 11.8209 1.32362C11.8942 1.18522 12.0039 1.06942 12.1381 0.988658C12.2723 0.907896 12.426 0.865227 12.5826 0.865234H12.5844C12.7253 0.865225 12.8644 0.896908 12.9914 0.95794C13.1184 1.01897 13.23 1.10779 13.3181 1.21781L15.3467 3.75401C15.4105 3.8338 15.4453 3.93294 15.4453 4.03512C15.4453 4.1373 15.4105 4.23644 15.3467 4.31623L13.3178 6.85226C13.2298 6.96229 13.1182 7.05112 12.9912 7.11216C12.8642 7.1732 12.7251 7.20489 12.5842 7.20489H12.5826C12.426 7.20489 12.2723 7.16222 12.1381 7.08146C12.0039 7.0007 11.8943 6.88491 11.8209 6.74652C11.7476 6.60812 11.7133 6.45236 11.7218 6.29597C11.7303 6.13957 11.7813 5.98844 11.8692 5.85883L12.5288 4.87867H6.02693C5.02321 4.87867 4.06061 5.27739 3.35088 5.98713C2.64115 6.69686 2.24243 7.65946 2.24243 8.66317C2.24243 9.66688 2.64115 10.6295 3.35088 11.3392C4.06061 12.0489 5.02321 12.4477 6.02693 12.4477H7.86714C8.09092 12.4477 8.30553 12.5366 8.46377 12.6948C8.622 12.853 8.71089 13.0676 8.71089 13.2914C8.71089 13.5152 8.622 13.7298 8.46377 13.888C8.30553 14.0463 8.09092 14.1352 7.86714 14.1352H6.02693C4.57566 14.1352 3.18384 13.5587 2.15764 12.5325C1.13144 11.5063 0.554927 10.1144 0.554927 8.66317C0.554927 7.21191 1.13144 5.82008 2.15764 4.79388C3.18384 3.76768 4.57566 3.19117 6.02693 3.19117Z" fill="#171719"/>
</svg>
