<svg width="967" height="954" viewBox="0 0 967 954" fill="none" xmlns="http://www.w3.org/2000/svg">
<rect y="0.912109" width="967" height="953" rx="12" fill="#EAEAEA"/>
<path d="M844.243 546.709C819.615 612.636 769.321 683.997 698.545 705.131C591.537 737.066 578.83 823.258 387.286 815.265C359.306 814.236 331.521 810.165 304.421 803.127C291.192 799.631 278.197 795.303 265.514 790.169C153.607 744.841 95.2374 645.089 90.4053 540.723C84.0183 403.435 179.79 338.01 242.039 299.704C304.288 261.399 379.31 113.009 567.661 119.312C596.424 120.175 624.992 124.349 652.799 131.752C716.185 148.907 780.607 186.844 818.06 242.304C820.869 246.484 823.555 250.742 826.119 255.079C876.245 340.1 877.8 456.822 844.243 546.709Z" fill="#4DA7FA"/>
<path opacity="0.7" d="M844.243 546.709C819.615 612.636 769.321 683.997 698.545 705.131C591.537 737.066 578.83 823.258 387.286 815.265C359.306 814.236 331.521 810.165 304.421 803.127C291.192 799.631 278.197 795.303 265.514 790.169C153.607 744.841 95.2374 645.089 90.4053 540.723C84.0183 403.435 179.79 338.01 242.039 299.704C304.288 261.399 379.31 113.009 567.661 119.312C596.424 120.175 624.992 124.349 652.799 131.752C716.185 148.907 780.607 186.844 818.06 242.304C820.869 246.484 823.555 250.742 826.119 255.079C876.245 340.1 877.8 456.822 844.243 546.709Z" fill="white"/>
<g opacity="0.3">
<path d="M857.857 265.695H729.531V445.352H857.857V265.695Z" stroke="black" stroke-miterlimit="10"/>
<path d="M853.497 271.799H733.898V439.233H853.497V271.799Z" stroke="black" stroke-miterlimit="10"/>
<path d="M822.06 315.805H765.312V395.241H822.06V315.805Z" stroke="black" stroke-miterlimit="10"/>
</g>
<g opacity="0.3">
<path d="M712.06 266.832H642.789V363.808H712.06V266.832Z" stroke="black" stroke-miterlimit="10"/>
<path d="M709.704 270.125H645.148V360.497H709.704V270.125Z" stroke="black" stroke-miterlimit="10"/>
<path d="M692.748 293.885H662.117V336.772H692.748V293.885Z" stroke="black" stroke-miterlimit="10"/>
</g>
<path d="M731.07 808.894V679.348" stroke="#5E5E5E" stroke-width="4" stroke-miterlimit="10"/>
<path d="M714.945 811.518V632.598" stroke="#5E5E5E" stroke-width="4" stroke-miterlimit="10"/>
<path d="M751.5 812.388V749.555" stroke="#5E5E5E" stroke-width="4" stroke-miterlimit="10"/>
<path d="M708.679 650.238C708.679 650.238 705.452 644.319 694.668 631.378C683.883 618.437 639.141 583.392 639.141 583.392C639.141 583.392 664.488 596.868 672.581 603.874C680.673 610.879 691.458 619.507 691.458 619.507C691.458 619.507 661.261 586.635 658.018 584.478C654.774 582.321 688.732 610.344 688.732 610.344C688.732 610.344 675.808 584.478 669.337 575.851C662.866 567.223 650.527 546.741 650.527 546.741C650.527 546.741 685.639 593.557 687.194 596.333C688.749 599.108 695.821 610.896 695.821 610.896L683.415 578.543L698.463 604.96C698.463 604.96 676.894 560.218 675.824 558.061C674.754 555.904 690.872 579.078 690.872 579.078L676.861 537.044L709.214 603.339L707.057 577.473L712.976 604.425L714.648 538.114L718.427 603.874C718.427 603.874 724.346 561.839 725.433 553.212C726.519 544.584 727.105 535.422 727.105 535.422C727.105 535.422 726.018 592.554 726.018 594.176C726.018 595.798 724.948 608.739 724.948 608.739L735.18 578.008C737.337 571.537 739.494 549.433 740.581 546.24C741.668 543.046 735.18 595.831 734.645 598.072C733.695 601.589 732.431 605.014 730.867 608.304C729.195 611.548 742.738 588.909 747.587 579.195L761.514 551.072C761.514 551.072 753.422 578.024 751.265 582.84C749.108 587.655 735.097 613.571 735.097 613.571C735.097 613.571 756.13 588.775 765.293 582.305C774.456 575.834 791.159 563.428 791.159 563.428C791.159 563.428 764.223 592.554 758.822 597.888C753.422 603.221 737.789 622.149 737.789 622.149C737.789 622.149 764.741 604.893 766.363 603.272C767.985 601.65 787.397 589.26 787.397 589.26C787.397 589.26 748.255 620.176 746.416 622.149C730.783 638.869 725.399 646.944 722.155 650.171C721.319 651.135 720.287 651.908 719.127 652.441C717.968 652.973 716.708 653.252 715.432 653.258C714.157 653.264 712.894 652.998 711.73 652.477C710.565 651.957 709.525 651.193 708.679 650.238Z" fill="#4DA7FA"/>
<path d="M727.292 697.505C724.366 692.777 721.05 688.302 717.377 684.129C709.753 674.983 678.102 650.204 678.102 650.204C678.102 650.204 696.025 659.734 701.744 664.683C707.462 669.632 715.12 675.752 715.12 675.752C715.12 675.752 693.768 652.494 691.478 650.956C689.187 649.418 713.214 669.264 713.214 669.264C713.214 669.264 704.068 650.956 699.486 644.853C694.905 638.75 686.11 624.271 686.11 624.271C686.11 624.271 710.89 657.443 712.043 659.383L718.146 669.682L709.368 646.793L720.052 665.486C720.052 665.486 704.803 633.835 704.034 632.313C703.265 630.792 714.718 647.177 714.718 647.177L704.803 617.432L727.676 664.332L726.155 646.04L730.352 665.101L731.489 618.202L734.13 664.767C734.13 664.767 738.31 635.022 739.146 628.936C739.982 622.85 740.283 616.346 740.283 616.346C740.283 616.346 739.531 656.758 739.531 657.912C739.531 659.065 738.762 668.211 738.762 668.211L746.018 646.475C747.54 641.894 749.061 626.261 749.83 623.97C750.6 621.679 746.018 659.082 745.634 660.57C744.962 663.064 744.067 665.493 742.958 667.827C741.821 670.117 751.318 654.099 754.78 647.228L764.694 627.398C764.694 627.398 758.976 646.475 757.455 649.903C755.933 653.33 746.018 671.639 746.018 671.639C746.018 671.639 760.882 654.099 767.37 649.518C773.857 644.937 785.661 636.142 785.661 636.142C785.661 636.142 766.601 656.724 762.788 660.537C758.976 664.349 747.924 677.708 747.924 677.708C747.924 677.708 766.985 665.502 768.122 664.332C769.259 663.162 783.003 654.434 783.003 654.434C783.003 654.434 755.315 676.287 754.01 677.691C742.958 689.512 739.146 695.231 736.856 697.521C736.258 698.202 735.522 698.747 734.697 699.12C733.871 699.493 732.976 699.685 732.07 699.683C731.164 699.681 730.269 699.486 729.445 699.111C728.621 698.735 727.887 698.187 727.292 697.505Z" fill="#4DA7FA"/>
<path d="M746.698 751.946C743.775 747.217 740.458 742.743 736.783 738.57C729.159 729.408 697.508 704.629 697.508 704.629C697.508 704.629 715.432 714.159 721.15 719.125C726.868 724.091 734.526 730.177 734.526 730.177C734.526 730.177 713.174 706.919 710.884 705.398C708.593 703.876 732.62 723.69 732.62 723.69C732.62 723.69 723.474 705.398 718.893 699.295C714.311 693.192 705.517 678.696 705.517 678.696C705.517 678.696 730.296 711.869 731.449 713.808C732.603 715.748 737.535 724.108 737.535 724.108L728.774 701.235L739.442 719.944C739.442 719.944 724.193 688.293 723.44 686.772C722.688 685.25 734.125 701.552 734.125 701.552L724.21 671.807L747.099 718.707L745.561 700.399L749.758 719.459L750.845 672.627L753.503 719.159C753.503 719.159 757.7 689.414 758.519 683.311C759.338 677.208 759.656 670.721 759.656 670.721C759.656 670.721 758.904 711.15 758.904 712.287C758.904 713.424 758.134 722.586 758.134 722.586L765.374 700.85C766.896 696.269 768.434 680.636 769.186 678.345C769.939 676.054 765.374 713.457 764.99 714.962C764.322 717.45 763.432 719.873 762.331 722.202C761.178 724.492 770.691 708.474 774.152 701.619L784.067 681.789C784.067 681.789 778.349 700.85 776.811 704.278C775.273 707.705 765.374 726.014 765.374 726.014C765.374 726.014 780.255 708.474 786.726 703.893C793.196 699.312 805.118 690.517 805.118 690.517C805.118 690.517 785.957 711.15 782.161 714.928C778.366 718.707 767.28 732.083 767.28 732.083C767.28 732.083 786.358 719.878 787.495 718.707C788.632 717.537 802.359 708.792 802.359 708.792C802.359 708.792 774.687 730.662 773.383 732.05C762.331 743.871 758.519 749.589 756.228 751.88C755.638 752.562 754.91 753.111 754.09 753.489C753.271 753.868 752.381 754.066 751.478 754.073C750.576 754.079 749.683 753.893 748.859 753.526C748.034 753.159 747.298 752.621 746.698 751.946Z" fill="#4DA7FA"/>
<path d="M766.277 889.251C769.379 877.868 770.937 866.12 770.909 854.323C770.909 852.099 770.909 849.892 770.758 847.718C770.511 842.209 769.924 836.72 769.003 831.283C768.668 829.293 768.284 827.337 767.866 825.414C767.515 823.826 767.13 822.254 766.729 820.716C764.977 813.934 762.453 807.376 759.205 801.17H703.26C700.042 807.382 697.54 813.939 695.803 820.716C695.385 822.254 695.017 823.826 694.666 825.414C694.231 827.337 693.863 829.293 693.512 831.283C692.618 836.722 692.06 842.211 691.84 847.718C691.723 849.892 691.689 852.099 691.689 854.323C691.625 866.117 693.155 877.866 696.237 889.251H766.277Z" fill="white" stroke="#263238" stroke-miterlimit="10"/>
<path d="M766.649 820.715H695.806C695.388 822.253 695.021 823.825 694.669 825.413H767.786C767.435 823.825 767.05 822.253 766.649 820.715ZM768.923 831.282H693.516C692.622 836.721 692.064 842.21 691.844 847.718H770.745C770.476 842.207 769.867 836.718 768.923 831.282Z" fill="#263238" stroke="#263238" stroke-miterlimit="10"/>
<path d="M136.523 116.353H600.051V601.567H126.992V125.866C126.992 123.339 127.996 120.915 129.784 119.127C131.571 117.34 133.995 116.336 136.523 116.336V116.353Z" fill="#263238" stroke="#263238" stroke-miterlimit="10"/>
<path d="M150.868 99.6328H611.604C614.043 99.6328 616.382 100.602 618.107 102.326C619.831 104.051 620.8 106.39 620.8 108.829V587.221H141.672V108.829C141.672 106.39 142.641 104.051 144.365 102.326C146.09 100.602 148.429 99.6328 150.868 99.6328Z" fill="white" stroke="#263238" stroke-miterlimit="10"/>
<path d="M150.868 99.6328H256.522C258.96 99.6328 261.3 100.602 263.024 102.326C264.749 104.051 265.718 106.39 265.718 108.829V587.221H141.672V108.829C141.672 106.39 142.641 104.051 144.365 102.326C146.09 100.602 148.429 99.6328 150.868 99.6328Z" fill="#ABABAB"/>
<path d="M150.868 99.6328H611.604C614.043 99.6328 616.382 100.602 618.107 102.326C619.831 104.051 620.8 106.39 620.8 108.829V152.552H141.672V108.829C141.672 106.39 142.641 104.051 144.365 102.326C146.09 100.602 148.429 99.6328 150.868 99.6328Z" fill="#4DA7FA" stroke="#263238" stroke-miterlimit="10"/>
<path d="M150.868 99.6328H611.604C614.043 99.6328 616.382 100.602 618.107 102.326C619.831 104.051 620.8 106.39 620.8 108.829V133.775H141.672V108.829C141.672 106.39 142.641 104.051 144.365 102.326C146.09 100.602 148.429 99.6328 150.868 99.6328Z" fill="#263238" stroke="#263238" stroke-miterlimit="10"/>
<path d="M556.392 117.741C556.392 116.299 555.965 114.89 555.164 113.691C554.363 112.492 553.224 111.558 551.892 111.006C550.56 110.454 549.094 110.31 547.68 110.591C546.266 110.873 544.967 111.567 543.948 112.586C542.928 113.606 542.234 114.905 541.953 116.319C541.671 117.733 541.816 119.199 542.367 120.531C542.919 121.863 543.854 123.001 545.052 123.802C546.251 124.603 547.661 125.031 549.102 125.031C551.034 125.027 552.886 124.257 554.252 122.891C555.618 121.525 556.388 119.673 556.392 117.741Z" fill="white" stroke="#263238" stroke-miterlimit="10"/>
<path d="M584.353 117.741C584.353 116.299 583.926 114.89 583.125 113.691C582.324 112.492 581.185 111.558 579.853 111.006C578.521 110.454 577.055 110.31 575.641 110.591C574.227 110.873 572.928 111.567 571.909 112.586C570.889 113.606 570.195 114.905 569.914 116.319C569.632 117.733 569.777 119.199 570.328 120.531C570.88 121.863 571.814 123.001 573.013 123.802C574.212 124.603 575.622 125.031 577.063 125.031C578.995 125.027 580.847 124.257 582.213 122.891C583.579 121.525 584.349 119.673 584.353 117.741Z" fill="white" stroke="#263238" stroke-miterlimit="10"/>
<path d="M612.324 117.741C612.327 116.296 611.902 114.881 611.101 113.677C610.3 112.474 609.16 111.535 607.825 110.979C606.49 110.423 605.021 110.276 603.602 110.556C602.184 110.836 600.88 111.531 599.857 112.552C598.833 113.573 598.136 114.875 597.853 116.293C597.569 117.711 597.713 119.181 598.266 120.517C598.818 121.853 599.755 122.995 600.956 123.799C602.158 124.602 603.572 125.031 605.018 125.031C606.952 125.031 608.808 124.264 610.178 122.897C611.548 121.53 612.32 119.676 612.324 117.741Z" fill="white" stroke="#263238" stroke-miterlimit="10"/>
<path d="M302.133 151.416V140.029" stroke="#263238" stroke-miterlimit="10"/>
<path d="M372.695 151.416V140.029" stroke="#263238" stroke-miterlimit="10"/>
<path d="M443.266 151.416V140.029" stroke="#263238" stroke-miterlimit="10"/>
<path d="M513.828 151.416V140.029" stroke="#263238" stroke-miterlimit="10"/>
<path d="M584.383 151.416V140.029" stroke="#263238" stroke-miterlimit="10"/>
<path d="M593.498 196.609H290.766V497.068H593.498V196.609Z" fill="white" stroke="#263238" stroke-miterlimit="10"/>
<path d="M460.273 272.25H501.037" stroke="#263238" stroke-miterlimit="10"/>
<path d="M460.273 302.213H501.037" stroke="#263238" stroke-miterlimit="10"/>
<path d="M460.273 332.158H501.037" stroke="#263238" stroke-miterlimit="10"/>
<path d="M382.055 398.102H401.935" stroke="#263238" stroke-miterlimit="10"/>
<path d="M335.625 398.102H377.525" stroke="#263238" stroke-miterlimit="10"/>
<path d="M315.797 398.102H329.959" stroke="#263238" stroke-miterlimit="10"/>
<path d="M349.789 407.314H401.939" stroke="#263238" stroke-miterlimit="10"/>
<path d="M315.797 407.314H345.258" stroke="#263238" stroke-miterlimit="10"/>
<path d="M380.367 416.51H401.936" stroke="#263238" stroke-miterlimit="10"/>
<path d="M340.156 416.51H374.7" stroke="#263238" stroke-miterlimit="10"/>
<path d="M315.797 416.51H335.058" stroke="#263238" stroke-miterlimit="10"/>
<path d="M315.797 425.707H401.938" stroke="#263238" stroke-miterlimit="10"/>
<path d="M351.477 434.902H401.938" stroke="#263238" stroke-miterlimit="10"/>
<path d="M315.797 434.902H345.258" stroke="#263238" stroke-miterlimit="10"/>
<path d="M387.156 444.115H401.937" stroke="#263238" stroke-miterlimit="10"/>
<path d="M315.797 444.115H382.627" stroke="#263238" stroke-miterlimit="10"/>
<path d="M389.43 453.311H401.936" stroke="#263238" stroke-miterlimit="10"/>
<path d="M338.453 453.311H386.038" stroke="#263238" stroke-miterlimit="10"/>
<path d="M315.797 453.311H335.058" stroke="#263238" stroke-miterlimit="10"/>
<path d="M391.688 462.508H401.937" stroke="#263238" stroke-miterlimit="10"/>
<path d="M357.711 462.508H385.466" stroke="#263238" stroke-miterlimit="10"/>
<path d="M315.797 462.508H353.751" stroke="#263238" stroke-miterlimit="10"/>
<path d="M561.727 263.99H576.691" stroke="#263238" stroke-miterlimit="10"/>
<path d="M526.75 263.99H558.317" stroke="#263238" stroke-miterlimit="10"/>
<path d="M511.82 263.99H522.488" stroke="#263238" stroke-miterlimit="10"/>
<path d="M537.422 274.824H576.697" stroke="#263238" stroke-miterlimit="10"/>
<path d="M511.82 274.824H534.008" stroke="#263238" stroke-miterlimit="10"/>
<path d="M560.445 285.66H576.697" stroke="#263238" stroke-miterlimit="10"/>
<path d="M530.164 285.66H556.18" stroke="#263238" stroke-miterlimit="10"/>
<path d="M511.82 285.66H526.317" stroke="#263238" stroke-miterlimit="10"/>
<path d="M511.82 296.494H576.694" stroke="#263238" stroke-miterlimit="10"/>
<path d="M538.688 307.312H576.692" stroke="#263238" stroke-miterlimit="10"/>
<path d="M511.82 307.312H534.008" stroke="#263238" stroke-miterlimit="10"/>
<path d="M565.555 318.146H576.69" stroke="#263238" stroke-miterlimit="10"/>
<path d="M511.82 318.146H562.148" stroke="#263238" stroke-miterlimit="10"/>
<path d="M567.266 328.98H576.696" stroke="#263238" stroke-miterlimit="10"/>
<path d="M528.875 328.98H564.706" stroke="#263238" stroke-miterlimit="10"/>
<path d="M511.82 328.98H526.317" stroke="#263238" stroke-miterlimit="10"/>
<path d="M568.984 339.816H576.692" stroke="#263238" stroke-miterlimit="10"/>
<path d="M543.391 339.816H564.291" stroke="#263238" stroke-miterlimit="10"/>
<path d="M511.82 339.816H540.395" stroke="#263238" stroke-miterlimit="10"/>
<path d="M359.598 351.068C351.605 351.066 343.742 349.041 336.742 345.182L342.962 333.93C349.592 337.593 357.247 338.964 364.736 337.827C372.225 336.691 379.129 333.111 384.373 327.645C389.617 322.18 392.909 315.134 393.735 307.605C394.561 300.075 392.876 292.483 388.942 286.01L399.91 279.322C404.267 286.479 406.641 294.665 406.787 303.042C406.933 311.419 404.847 319.684 400.743 326.988C396.639 334.292 390.665 340.373 383.434 344.604C376.204 348.836 367.977 351.067 359.598 351.068Z" fill="#4DA7FA" stroke="#263238" stroke-miterlimit="10"/>
<path d="M336.73 345.183C328.281 340.512 321.467 333.363 317.207 324.7C312.946 316.037 311.443 306.276 312.901 296.732C314.358 287.189 318.706 278.322 325.358 271.325C332.011 264.329 340.648 259.54 350.106 257.604L352.647 270.21C345.766 271.618 339.481 275.1 334.639 280.188C329.798 285.276 326.632 291.726 325.568 298.669C324.504 305.612 325.593 312.713 328.689 319.018C331.785 325.323 336.738 330.527 342.883 333.93L336.73 345.183Z" fill="#263238" stroke="#263238" stroke-miterlimit="10"/>
<path d="M388.928 286.01C385.878 280.965 381.574 276.795 376.435 273.906C371.296 271.017 365.496 269.508 359.601 269.524C357.293 269.524 354.991 269.754 352.729 270.21L350.188 257.603C353.287 256.98 356.44 256.666 359.601 256.666C367.705 256.638 375.678 258.71 382.743 262.68C389.808 266.651 395.724 272.384 399.913 279.322L388.928 286.01Z" fill="#ABABAB" stroke="#263238" stroke-miterlimit="10"/>
<path d="M451.942 264.76H437.797V278.905H451.942V264.76Z" fill="#4DA7FA" stroke="#263238" stroke-miterlimit="10"/>
<path d="M451.942 295.141H437.797V309.286H451.942V295.141Z" fill="#263238" stroke="#263238" stroke-miterlimit="10"/>
<path d="M451.942 325.504H437.797V339.649H451.942V325.504Z" fill="#ABABAB" stroke="#263238" stroke-miterlimit="10"/>
<path d="M454.635 408.986H433.719V465.015H454.635V408.986Z" fill="#263238"/>
<path d="M482.245 383.889H461.328V465.014H482.245V383.889Z" fill="#4DA7FA" stroke="#263238" stroke-miterlimit="10"/>
<path d="M509.846 421.525H488.93V465.014H509.846V421.525Z" fill="#263238"/>
<path d="M537.432 395.594H516.516V465.015H537.432V395.594Z" fill="#4DA7FA" stroke="#263238" stroke-miterlimit="10"/>
<path d="M565.042 373.021H544.125V465.015H565.042V373.021Z" fill="#263238"/>
<path d="M505.85 218.244H398.875V228.493H505.85V218.244Z" fill="#263238"/>
<path d="M252.078 183.818H155.336V287.382H252.078V183.818Z" fill="white" stroke="#263238" stroke-miterlimit="10"/>
<path d="M203.686 253.19C199.148 253.19 194.684 252.04 190.711 249.846L194.256 243.426C198.018 245.493 202.357 246.262 206.6 245.613C210.844 244.965 214.755 242.935 217.728 239.838C220.701 236.741 222.57 232.751 223.045 228.484C223.52 224.218 222.575 219.914 220.356 216.239L226.592 212.443C229.085 216.505 230.448 221.16 230.54 225.925C230.631 230.69 229.448 235.393 227.112 239.548C224.777 243.702 221.374 247.158 217.255 249.556C213.136 251.954 208.452 253.209 203.686 253.19Z" fill="#4DA7FA"/>
<path d="M190.728 249.829C185.902 247.194 182.006 243.136 179.569 238.208C177.132 233.28 176.272 227.72 177.107 222.286C177.942 216.852 180.431 211.807 184.236 207.838C188.04 203.869 192.975 201.168 198.369 200.104L199.807 207.26C195.905 208.062 192.341 210.04 189.596 212.928C186.851 215.815 185.056 219.474 184.452 223.412C183.847 227.349 184.463 231.378 186.215 234.956C187.968 238.533 190.774 241.489 194.256 243.425L190.728 249.829Z" fill="#263238"/>
<path d="M220.358 216.238C218.623 213.361 216.17 210.985 213.238 209.343C210.306 207.702 206.998 206.851 203.638 206.875C202.33 206.877 201.026 207.006 199.743 207.26L198.305 200.104C200.061 199.749 201.847 199.57 203.638 199.569C208.243 199.553 212.774 200.73 216.788 202.987C220.803 205.243 224.164 208.501 226.545 212.443L220.358 216.238Z" fill="#ABABAB"/>
<path d="M221.156 262.502H236.121" stroke="#263238" stroke-miterlimit="10"/>
<path d="M186.18 262.502H217.747" stroke="#263238" stroke-miterlimit="10"/>
<path d="M171.25 262.502H181.917" stroke="#263238" stroke-miterlimit="10"/>
<path d="M196.852 267.602H236.127" stroke="#263238" stroke-miterlimit="10"/>
<path d="M171.25 267.602H193.437" stroke="#263238" stroke-miterlimit="10"/>
<path d="M219.891 272.719H236.126" stroke="#263238" stroke-miterlimit="10"/>
<path d="M189.594 272.719H215.627" stroke="#263238" stroke-miterlimit="10"/>
<path d="M171.25 272.719H185.763" stroke="#263238" stroke-miterlimit="10"/>
<path d="M252.078 324.082H155.336V427.646H252.078V324.082Z" fill="white" stroke="#263238" stroke-miterlimit="10"/>
<path d="M223.031 335.484H241.106" stroke="#263238" stroke-miterlimit="10"/>
<path d="M180.781 335.484H200.009" stroke="#263238" stroke-miterlimit="10"/>
<path d="M162.758 335.484H175.632" stroke="#263238" stroke-miterlimit="10"/>
<path d="M193.672 346.32H199.708" stroke="#263238" stroke-miterlimit="10"/>
<path d="M162.758 346.32H189.543" stroke="#263238" stroke-miterlimit="10"/>
<path d="M184.914 357.154H199.711" stroke="#263238" stroke-miterlimit="10"/>
<path d="M162.758 357.154H180.264" stroke="#263238" stroke-miterlimit="10"/>
<path d="M162.758 367.988H199.709" stroke="#263238" stroke-miterlimit="10"/>
<path d="M195.211 378.824H241.107" stroke="#263238" stroke-miterlimit="10"/>
<path d="M162.758 378.824H189.543" stroke="#263238" stroke-miterlimit="10"/>
<path d="M227.664 389.658H241.107" stroke="#263238" stroke-miterlimit="10"/>
<path d="M162.758 389.658H223.552" stroke="#263238" stroke-miterlimit="10"/>
<path d="M229.734 400.477H241.104" stroke="#263238" stroke-miterlimit="10"/>
<path d="M183.352 400.477H226.64" stroke="#263238" stroke-miterlimit="10"/>
<path d="M162.758 400.477H180.264" stroke="#263238" stroke-miterlimit="10"/>
<path d="M231.797 411.311H241.11" stroke="#263238" stroke-miterlimit="10"/>
<path d="M200.875 411.311H226.122" stroke="#263238" stroke-miterlimit="10"/>
<path d="M162.758 411.311H197.268" stroke="#263238" stroke-miterlimit="10"/>
<path d="M241.124 335.568H203.203V373.489H241.124V335.568Z" stroke="#263238" stroke-miterlimit="10"/>
<path d="M203.203 373.473L217.716 357.339L224.973 362.187L235.473 350.082L240.305 352.506" stroke="#263238" stroke-miterlimit="10"/>
<path d="M214.487 351.703C217.608 351.703 220.139 349.173 220.139 346.052C220.139 342.931 217.608 340.4 214.487 340.4C211.366 340.4 208.836 342.931 208.836 346.052C208.836 349.173 211.366 351.703 214.487 351.703Z" stroke="#263238" stroke-miterlimit="10"/>
<path d="M252.078 457.523H155.336V561.087H252.078V457.523Z" fill="white" stroke="#263238" stroke-miterlimit="10"/>
<path d="M197.602 516.814H235.606" stroke="#263238" stroke-miterlimit="10"/>
<path d="M170.734 516.814H192.905" stroke="#263238" stroke-miterlimit="10"/>
<path d="M224.469 527.648H235.604" stroke="#263238" stroke-miterlimit="10"/>
<path d="M170.734 527.648H221.062" stroke="#263238" stroke-miterlimit="10"/>
<path d="M226.172 538.482H235.602" stroke="#263238" stroke-miterlimit="10"/>
<path d="M187.789 538.482H223.62" stroke="#263238" stroke-miterlimit="10"/>
<path d="M170.734 538.482H185.231" stroke="#263238" stroke-miterlimit="10"/>
<path d="M227.883 549.316H235.607" stroke="#263238" stroke-miterlimit="10"/>
<path d="M202.297 549.316H223.197" stroke="#263238" stroke-miterlimit="10"/>
<path d="M170.734 549.316H199.309" stroke="#263238" stroke-miterlimit="10"/>
<path d="M181.468 485.297H171.219V510.109H181.468V485.297Z" fill="#263238"/>
<path d="M194.992 474.193H184.742V510.108H194.992V474.193Z" fill="#4DA7FA" stroke="#263238" stroke-miterlimit="10"/>
<path d="M208.523 490.863H198.273V510.125H208.523V490.863Z" fill="#263238"/>
<path d="M222.031 479.377H211.781V510.108H222.031V479.377Z" fill="#4DA7FA" stroke="#263238" stroke-miterlimit="10"/>
<path d="M235.554 469.379H225.305V510.109H235.554V469.379Z" fill="#263238"/>
<path d="M508.273 889.251V695.032C508.293 693.357 507.983 691.695 507.36 690.141C506.737 688.586 505.813 687.17 504.642 685.973C503.471 684.775 502.076 683.821 500.536 683.163C498.996 682.506 497.341 682.158 495.666 682.141H279.209C275.829 682.18 272.602 683.56 270.238 685.977C267.874 688.394 266.567 691.651 266.602 695.032V889.251H508.273Z" fill="#D4D4D4" stroke="#263238" stroke-miterlimit="10"/>
<path d="M532.383 889.251V695.032C532.418 691.651 531.111 688.394 528.747 685.977C526.383 683.56 523.156 682.18 519.776 682.141H303.319C301.644 682.158 299.989 682.506 298.449 683.163C296.909 683.821 295.514 684.775 294.343 685.973C293.172 687.17 292.248 688.586 291.625 690.141C291.002 691.695 290.692 693.357 290.712 695.032V889.251H532.383Z" fill="#D4D4D4" stroke="#263238" stroke-miterlimit="10"/>
<path d="M653.386 889.251V795.184C653.413 792.584 652.406 790.08 650.588 788.221C648.77 786.362 646.288 785.3 643.688 785.27H521.398C518.805 785.309 516.334 786.375 514.526 788.233C512.717 790.092 511.719 792.592 511.751 795.184V889.318L653.386 889.251Z" fill="#D4D4D4" stroke="#263238" stroke-miterlimit="10"/>
<path d="M653.384 889.25V795.434C653.488 792.833 652.558 790.296 650.797 788.378C649.037 786.461 646.588 785.318 643.987 785.201H594.53C591.929 785.318 589.48 786.461 587.719 788.378C585.959 790.296 585.029 792.833 585.133 795.434V889.25H653.384Z" fill="#D4D4D4" stroke="#263238" stroke-miterlimit="10"/>
<path d="M629.693 889.251C607.957 875.356 556.225 841.699 545.574 829.276C532.014 813.459 529.189 808.376 518.455 808.945C507.72 809.513 398.071 824.762 398.071 824.762C393.484 830.725 390.384 837.694 389.025 845.093C387.621 854.507 399.057 880.707 403.003 889.251H629.693Z" fill="#263238" stroke="#263238" stroke-miterlimit="10"/>
<path d="M441.629 597.637C443.301 597.737 475.52 600.981 488.445 606.682C501.369 612.384 529.125 619.674 538.17 623.636C547.216 627.599 552.282 632.097 553.419 643.968C554.556 655.839 565.29 699.896 566.979 707.236C568.667 714.576 571.493 745.692 568.116 755.273C564.738 764.853 524.644 766.007 524.644 766.007C524.644 766.007 524.075 781.256 526.316 789.733C528.556 798.21 534.224 811.77 515.581 815.147C496.939 818.525 400.899 838.89 394.111 834.358C387.322 829.827 390.165 794.816 390.165 786.339C390.165 777.862 381.688 760.356 381.688 760.356C373.571 762.322 365.635 764.967 357.962 768.264C348.348 772.779 335.925 770.521 320.108 765.439C304.291 760.356 303.204 745.659 298.69 736.663C294.175 727.668 313.938 714.627 317.884 707.838C321.83 701.05 348.967 638.918 350.104 632.13C351.241 625.342 366.473 623.67 386.888 617.45C386.821 617.416 430.895 597.068 441.629 597.637Z" fill="#4DA7FA" stroke="#263238" stroke-miterlimit="10"/>
<path d="M419.07 815.131C433.801 798.979 469.732 761.41 495.765 749.221" stroke="#263238" stroke-miterlimit="10"/>
<path d="M412.367 822.637C412.367 822.637 413.805 820.965 416.38 818.123" stroke="#263238" stroke-miterlimit="10"/>
<path d="M443.516 780.321C445.02 779.184 446.525 778.063 448.013 776.977" stroke="#263238" stroke-miterlimit="10"/>
<path d="M415.227 805.533C415.227 805.533 425.125 795.501 436.745 785.736" stroke="#263238" stroke-miterlimit="10"/>
<path d="M360.969 673.98C365.985 692.857 373.057 718.389 375.799 725.144C380.314 736.212 383.19 755.072 383.19 755.072" fill="white"/>
<path d="M360.969 673.98C365.985 692.857 373.057 718.389 375.799 725.144C380.314 736.212 383.19 755.072 383.19 755.072" stroke="#263238" stroke-miterlimit="10"/>
<path d="M355.32 652.596C355.32 652.596 356.992 658.866 359.316 667.777L355.32 652.596Z" fill="white"/>
<path d="M355.32 652.596C355.32 652.596 356.992 658.866 359.316 667.777" stroke="#263238" stroke-miterlimit="10"/>
<path d="M352.242 696.101C349.83 694.373 347.121 693.103 344.25 692.355" stroke="#263238" stroke-miterlimit="10"/>
<path d="M339.648 705.129C345.818 706.45 353.275 709.125 357.355 714.492C361.175 719.356 364.736 724.418 368.022 729.657C368.022 729.657 368.842 721.866 363.107 709.978C361.512 706.581 359.483 703.405 357.071 700.531" stroke="#263238" stroke-miterlimit="10"/>
<path d="M329.5 703.842C329.5 703.842 331.088 703.842 333.546 704.143" stroke="#263238" stroke-miterlimit="10"/>
<path d="M319.656 714.075C319.656 714.075 334.42 707.12 348.766 712.855" stroke="#263238" stroke-miterlimit="10"/>
<path d="M534.409 668.496L521.719 758.349" stroke="#263238" stroke-miterlimit="10"/>
<path d="M536.878 650.957L535.523 660.621" stroke="#263238" stroke-miterlimit="10"/>
<path d="M555.227 706.851C557.847 705.339 560.659 704.186 563.587 703.424" stroke="#263238" stroke-miterlimit="10"/>
<path d="M524.172 747.699C524.172 747.699 525.409 738.268 537.698 722.284C541.586 717.149 546.284 712.682 551.609 709.059" stroke="#263238" stroke-miterlimit="10"/>
<path d="M525.812 748.518C525.812 748.518 539.339 730.879 554.922 729.24" stroke="#263238" stroke-miterlimit="10"/>
<path d="M434.839 593.123C434.839 593.123 425.242 593.691 422.968 598.774C420.694 603.857 420.711 647.363 420.711 647.363C420.711 647.363 453.482 634.923 457.997 634.923C462.511 634.923 497.556 648.483 497.556 648.483C497.556 648.483 493.025 616.849 485.116 604.426C477.208 592.003 463.648 592.554 459.133 592.554C454.619 592.554 434.839 593.123 434.839 593.123Z" fill="white" stroke="#263238" stroke-miterlimit="10"/>
<path d="M426.359 589.159L428.617 601.03C428.617 601.03 457.442 656.39 460.819 652.444C464.197 648.498 481.168 603.288 481.168 603.288L482.288 587.47C482.288 587.47 468.728 596.516 460.819 596.516C452.911 596.516 428.617 583.508 428.617 583.508L426.359 589.159Z" fill="white" stroke="#263238" stroke-miterlimit="10"/>
<path d="M482.288 587.47C482.288 587.47 468.728 596.516 460.819 596.516C452.911 596.516 428.617 583.508 428.617 583.508L426.359 589.159L428.617 601.03C428.617 601.03 435.121 613.52 442.31 626.211C443.461 625.781 444.579 625.266 445.654 624.672C477.105 607.033 482.288 587.47 482.288 587.47Z" fill="#263238" stroke="#263238" stroke-miterlimit="10"/>
<path d="M413.74 545.955C413.74 545.955 407.236 532.946 402.688 543.998C398.14 555.05 417.635 569.998 417.635 569.998L413.74 545.955Z" fill="white" stroke="#263238" stroke-miterlimit="10"/>
<path d="M490.134 543.046C490.134 543.046 496.287 530.355 499.548 542.059C502.808 553.763 489.516 568.694 489.516 568.694L490.134 543.046Z" fill="white" stroke="#263238" stroke-miterlimit="10"/>
<path d="M412.437 542.713C412.437 542.713 417.002 577.172 419.594 583.024C421.817 588.04 442.182 605.58 448.135 610.646C449.185 611.537 450.519 612.024 451.897 612.017C455.689 612.104 459.483 611.92 463.249 611.465C465.858 610.813 483.313 594.745 487.192 585.616C491.072 576.487 489.801 523.869 489.801 523.869C489.801 523.869 487.845 489.426 483.949 484.878C480.053 480.33 431.298 480.314 418.941 486.818C406.585 493.322 406.602 504.374 408.542 510.878C410.481 517.382 412.437 542.713 412.437 542.713Z" fill="white" stroke="#263238" stroke-miterlimit="10"/>
<path d="M467.895 473.859C447.195 470.598 439.303 476.584 427.399 484.158C424.476 484.667 421.632 485.555 418.939 486.8C406.599 493.304 406.599 504.356 408.539 510.86C410.478 517.364 412.434 542.628 412.434 542.628L416.999 543.28C416.999 543.28 417.634 528.333 418.286 526.393C418.939 524.454 426.747 515.341 427.399 510.793C428.051 506.246 426.747 493.237 426.747 493.237C426.747 493.237 433.886 515.993 461.19 523.785C467.711 525.684 474.462 526.674 481.254 526.728C481.605 530.456 482.24 533.984 483.377 534.837L485.969 536.793C485.969 536.793 485.317 545.889 487.273 547.828C488.037 548.561 489.005 549.045 490.049 549.216C490.132 539.334 490.049 530.289 489.932 526.159C502.254 524.403 500.415 519.839 500.8 514.321C501.368 505.292 492.59 477.771 467.895 473.859Z" fill="#263238" stroke="#263238" stroke-miterlimit="10"/>
<path d="M444.867 569.914C446.555 572.597 449.11 574.62 452.107 575.649C456.638 576.853 461.47 577.154 466.586 569.312" stroke="#263238" stroke-miterlimit="10"/>
<path d="M437.633 581.068C437.633 581.068 443.368 588.007 455.741 587.405C468.113 586.803 472.628 581.687 472.628 581.687" stroke="#263238" stroke-miterlimit="10"/>
<path d="M429.492 554.215C431.89 555.462 434.516 556.211 437.211 556.418C439.906 556.625 442.615 556.285 445.176 555.419" stroke="#263238" stroke-miterlimit="10"/>
<path d="M464.781 555.418C467.713 556.595 470.849 557.174 474.008 557.123C477.166 557.071 480.282 556.389 483.173 555.117" stroke="#263238" stroke-miterlimit="10"/>
<path d="M427.367 544.266C427.367 544.266 432.199 537.026 445.174 541.541" stroke="#263238" stroke-miterlimit="10"/>
<path d="M465.086 543.046C467.698 541.357 470.789 540.562 473.892 540.782C476.996 541.002 479.943 542.225 482.291 544.267" stroke="#263238" stroke-miterlimit="10"/>
<path d="M519.255 755.473C519.255 755.473 527.448 749.337 540.573 741.128C553.698 732.918 566.388 735.393 573.361 743.184C580.333 750.976 581.152 772.695 570.485 782.125C559.817 791.555 545.488 789.081 536.476 786.623C527.464 784.165 516.412 774.735 515.56 772.695C514.707 770.655 519.255 755.473 519.255 755.473Z" fill="#4DA7FA" stroke="#263238" stroke-miterlimit="10"/>
<path d="M524.596 750.976C524.596 750.976 528.692 746.043 534.427 745.642C540.162 745.241 550.411 750.558 552.819 763.683C555.227 776.808 549.475 787.442 542.57 790.719C535.664 793.996 524.545 791.957 522.088 788.261C520.113 784.876 518.467 781.31 517.172 777.611L524.596 750.976Z" fill="white" stroke="#263238" stroke-miterlimit="10"/>
<path d="M516.769 737.032C516.769 737.032 494.23 718.64 491.772 717.771C489.314 716.901 472.093 722.285 472.093 722.285L476.607 739.089C476.607 739.089 474.551 740.761 467.996 734.992C461.442 729.224 457.346 721.466 454.888 723.924C452.43 726.382 451.193 731.297 456.928 737.45C462.663 743.603 470.454 751.796 474.551 757.514C478.647 763.232 490.535 766.125 490.535 766.125C490.535 766.125 493.411 771.442 504.479 776.776C515.548 782.109 532.753 785.386 532.753 785.386C532.753 785.386 544.641 772.261 540.127 760.791C539.024 757.635 536.885 754.945 534.059 753.16C531.232 751.375 527.884 750.599 524.56 750.96L519.227 749.723L516.769 737.032Z" fill="white" stroke="#263238" stroke-miterlimit="10"/>
<path d="M486.336 714.142C486.336 714.142 472.96 703.257 469.432 703.759C465.904 704.261 458.23 708.039 455.187 710.163C452.144 712.286 454.869 716.416 458.531 716.266C461.42 716.05 464.285 715.581 467.091 714.861L469.248 713.674L478.996 728.906" fill="white"/>
<path d="M486.336 714.142C486.336 714.142 472.96 703.257 469.432 703.759C465.904 704.261 458.23 708.039 455.187 710.163C452.144 712.286 454.869 716.416 458.531 716.266C461.42 716.05 464.285 715.581 467.091 714.861L469.248 713.674L478.996 728.906" stroke="#263238" stroke-miterlimit="10"/>
<path d="M469.25 713.674L474.483 711.283" stroke="#263238" stroke-miterlimit="10"/>
<path d="M501.719 713.34C501.719 713.34 488.343 702.472 484.832 702.974C481.321 703.475 473.613 707.237 470.57 709.378C467.527 711.518 470.252 715.614 473.914 715.48C476.804 715.263 479.669 714.788 482.474 714.059L484.631 712.889L494.362 728.104" fill="white"/>
<path d="M501.719 713.34C501.719 713.34 488.343 702.472 484.832 702.974C481.321 703.475 473.613 707.237 470.57 709.378C467.527 711.518 470.252 715.614 473.914 715.48C476.804 715.263 479.669 714.788 482.474 714.059L484.631 712.889L494.362 728.104" stroke="#263238" stroke-miterlimit="10"/>
<path d="M484.633 712.888L489.866 710.48" stroke="#263238" stroke-miterlimit="10"/>
<path d="M513.923 724.325C513.923 724.325 507.369 708.34 504.092 707.12C500.815 705.899 492.204 705.448 488.526 705.882C484.847 706.317 485.182 711.216 488.526 712.855C491.166 714.051 493.907 715.008 496.718 715.714H499.176L500.397 733.755" fill="white"/>
<path d="M513.923 724.325C513.923 724.325 507.369 708.34 504.092 707.12C500.815 705.899 492.204 705.448 488.526 705.882C484.847 706.317 485.182 711.216 488.526 712.855C491.166 714.051 493.907 715.008 496.718 715.714H499.176L500.397 733.755" stroke="#263238" stroke-miterlimit="10"/>
<path d="M499.18 715.713L504.915 716.131" stroke="#263238" stroke-miterlimit="10"/>
<path d="M517.622 753.016C517.622 753.016 521.318 733.353 520.498 731.28C519.679 729.206 512.707 720.211 510.65 720.211C508.594 720.211 504.514 724.307 506.153 728.404C506.505 729.521 507.144 730.526 508.007 731.318C508.87 732.11 509.925 732.662 511.068 732.918V744.388L507.373 749.32" fill="white"/>
<path d="M517.622 753.016C517.622 753.016 521.318 733.353 520.498 731.28C519.679 729.206 512.707 720.211 510.65 720.211C508.594 720.211 504.514 724.307 506.153 728.404C506.505 729.521 507.144 730.526 508.007 731.318C508.87 732.11 509.925 732.662 511.068 732.918V744.388L507.373 749.32" stroke="#263238" stroke-miterlimit="10"/>
<path d="M476.672 775.873H403.205L399.125 687.658H480.752L476.672 775.873Z" fill="#263238" stroke="#263238" stroke-miterlimit="10"/>
<path d="M365.354 737.182C365.354 737.182 336.545 716.282 333.719 715.162C330.894 714.041 315.077 720.796 306.031 727.585C296.986 734.373 297.554 741.144 301.015 749.621C304.476 758.098 317.952 768.833 323.052 772.779C328.152 776.725 352.429 774.451 352.429 774.451L365.354 737.182Z" fill="#4DA7FA" stroke="#263238" stroke-miterlimit="10"/>
<path d="M371.002 740.009C371.002 740.009 364.782 730.98 361.956 730.411C359.131 729.843 350.654 736.063 346.139 741.714C341.625 747.365 337.094 762.614 337.094 770.523C337.094 778.431 350.654 780.688 352.911 780.688C355.168 780.688 358.562 773.917 362.525 771.659C366.488 769.402 371.002 740.009 371.002 740.009Z" fill="white" stroke="#263238" stroke-miterlimit="10"/>
<path d="M455.738 768.181C455.738 768.181 465.971 768.181 468.429 766.509C470.886 764.837 478.678 753.4 479.915 750.942C481.153 748.485 476.22 748.485 473.361 753.801C470.502 759.118 459.417 763.232 456.641 764.87C453.622 766.196 450.456 767.161 447.211 767.746L455.738 768.181Z" fill="white" stroke="#263238" stroke-miterlimit="10"/>
<path d="M365.348 737.182L406.597 741.679C406.597 741.679 413.285 722.468 416.194 721.9C422.274 719.842 428.137 717.193 433.7 713.991C435.974 712.319 439.92 710.028 437.662 716.248C435.405 722.468 422.966 728.688 422.966 728.688C422.966 728.688 434.268 736.028 437.662 736.596C441.057 737.165 464.782 732.065 464.782 732.065C464.782 732.065 482.288 725.377 483.994 726.414C485.699 727.451 481.168 732.065 481.168 732.065C481.168 732.065 484.512 729.808 485.682 732.634C486.853 735.459 482.857 741.111 482.857 741.111C482.857 741.111 484.529 742.231 483.425 746.762C482.322 751.293 467.039 763.7 463.645 765.973C460.251 768.247 442.177 768.799 430.322 768.799C421.615 768.624 412.929 767.865 404.323 766.525C404.323 766.525 356.871 774.451 354.614 774.451C352.357 774.451 341.054 751.31 365.348 737.182Z" fill="white" stroke="#263238" stroke-miterlimit="10"/>
<path d="M481.174 732.1C481.174 732.1 459.137 749.054 456.311 749.054C453.485 749.054 436.531 753.568 436.531 753.568" fill="white"/>
<path d="M481.174 732.1C481.174 732.1 459.137 749.054 456.311 749.054C453.485 749.054 436.531 753.568 436.531 753.568" stroke="#263238" stroke-miterlimit="10"/>
<path d="M482.856 741.145C482.856 741.145 465.35 756.393 463.645 757.53C461.939 758.667 445.57 761.476 445.57 761.476" fill="white"/>
<path d="M482.856 741.145C482.856 741.145 465.35 756.393 463.645 757.53C461.939 758.667 445.57 761.476 445.57 761.476" stroke="#263238" stroke-miterlimit="10"/>
<path d="M638.825 889.251C623.643 864.321 577.211 792.576 547.784 795.385C512.187 798.729 398.625 845.093 398.625 845.093L604.716 889.251H638.825Z" fill="#263238" stroke="#263238" stroke-miterlimit="10"/>
<path d="M386.232 889.251V795.184C386.258 792.584 385.252 790.08 383.434 788.221C381.616 786.362 379.134 785.3 376.534 785.27H303.886C301.285 785.3 298.804 786.362 296.986 788.221C295.167 790.08 294.161 792.584 294.188 795.184V889.318L386.232 889.251Z" fill="#D4D4D4" stroke="#263238" stroke-miterlimit="10"/>
<path d="M409.962 889.251V795.435C410.02 794.143 409.824 792.852 409.383 791.636C408.942 790.42 408.266 789.302 407.394 788.347C406.521 787.392 405.469 786.619 404.297 786.07C403.126 785.522 401.858 785.21 400.565 785.152H351.108C348.507 785.27 346.058 786.412 344.298 788.329C342.537 790.247 341.607 792.784 341.711 795.385V889.201L409.962 889.251Z" fill="#D4D4D4" stroke="#263238" stroke-miterlimit="10"/>
<path d="M158.877 889.25H115.656" stroke="#263238" stroke-miterlimit="10"/>
<path d="M866.917 889.25H177.602" stroke="#263238" stroke-miterlimit="10"/>
</svg>
