<svg width="126" height="40" viewBox="0 0 126 40" fill="none" xmlns="http://www.w3.org/2000/svg">
<g clip-path="url(#clip0_657_24309)">
<path d="M16.0899 15.5931C19.1762 12.5068 19.1576 7.48438 16.0484 4.37515C12.9392 1.26592 7.91673 1.24734 4.83043 4.33364C1.74413 7.41993 1.76271 12.4424 4.87194 15.5516C7.98117 18.6609 13.0036 18.6794 16.0899 15.5931Z" fill="#7EC1FF"/>
<path d="M35.9116 9.19119C36.2724 10.4249 36.3186 11.7271 36.0458 12.9785C34.8644 18.3599 32.2557 23.314 28.4928 27.3223C24.7299 31.3306 19.9511 34.2455 14.6568 35.7621L14.5831 35.7827C14.3702 35.8428 14.1573 35.9013 13.9451 35.9558C11.9937 36.3892 9.94457 36.0447 8.23168 34.9954C6.5188 33.9461 5.27667 32.2742 4.76833 30.334C4.25999 28.3937 4.52536 26.3373 5.50825 24.6003C6.49114 22.8633 8.11436 21.5821 10.0342 21.028L10.2351 20.9735L10.2719 20.9624C12.878 20.2223 15.2368 18.8044 17.1088 16.8525C18.9807 14.9006 20.2991 12.4843 20.9302 9.84888C20.9728 9.67436 21.0106 9.49822 21.0444 9.32447C21.4641 7.69177 22.4096 6.24613 23.7355 5.2099C25.0613 4.17368 26.6941 3.60425 28.3827 3.58919C30.0713 3.57414 31.7222 4.11429 33.0815 5.12658C34.4408 6.13887 35.4331 7.56723 35.906 9.19197L35.9116 9.19119Z" fill="#4DA7FA"/>
</g>
<path d="M44.5724 2.77344V1.54545H51.8896V2.77344H48.9396V11H47.5178V2.77344H44.5724ZM54.4944 11.157C54.0451 11.157 53.6388 11.0739 53.2757 10.9077C52.9125 10.7384 52.6247 10.4937 52.4124 10.1737C52.2031 9.85357 52.0985 9.46117 52.0985 8.99645C52.0985 8.59635 52.1754 8.26705 52.3293 8.00852C52.4832 7.75 52.6909 7.54534 52.9525 7.39453C53.2141 7.24373 53.5065 7.12985 53.8296 7.05291C54.1528 6.97597 54.4821 6.9175 54.8176 6.87749C55.2423 6.82824 55.587 6.78823 55.8517 6.75746C56.1163 6.7236 56.3087 6.66974 56.4287 6.59588C56.5487 6.52202 56.6088 6.40199 56.6088 6.2358V6.20348C56.6088 5.80031 56.4949 5.48793 56.2671 5.26633C56.0425 5.04474 55.707 4.93395 55.2607 4.93395C54.796 4.93395 54.4298 5.03705 54.162 5.24325C53.8973 5.44638 53.7142 5.67259 53.6127 5.92188L52.3154 5.62642C52.4693 5.19555 52.694 4.84777 52.9894 4.5831C53.288 4.31534 53.6311 4.12145 54.0189 4.00142C54.4067 3.87831 54.8145 3.81676 55.2423 3.81676C55.5254 3.81676 55.8255 3.85062 56.1425 3.91832C56.4626 3.98295 56.7611 4.10298 57.0381 4.27841C57.3182 4.45383 57.5474 4.70466 57.7259 5.03089C57.9044 5.35405 57.9937 5.77415 57.9937 6.29119V11H56.6457V10.0305H56.5903C56.501 10.209 56.3672 10.3845 56.1887 10.5568C56.0102 10.7292 55.7809 10.8723 55.5008 10.9862C55.2207 11.1 54.8853 11.157 54.4944 11.157ZM54.7945 10.049C55.1761 10.049 55.5023 9.9736 55.7732 9.8228C56.0471 9.67199 56.2548 9.47502 56.3964 9.23189C56.541 8.98568 56.6134 8.72254 56.6134 8.44247V7.52841C56.5641 7.57765 56.4687 7.62382 56.3271 7.6669C56.1887 7.70691 56.0302 7.74231 55.8517 7.77308C55.6731 7.80078 55.4993 7.82694 55.33 7.85156C55.1607 7.87311 55.0191 7.89157 54.9053 7.90696C54.6375 7.94081 54.3928 7.99775 54.1713 8.07777C53.9527 8.15779 53.7773 8.2732 53.645 8.42401C53.5157 8.57173 53.4511 8.7687 53.4511 9.01491C53.4511 9.35653 53.5773 9.61506 53.8296 9.79048C54.082 9.96283 54.4036 10.049 54.7945 10.049ZM61.2125 1.54545V11H59.8322V1.54545H61.2125ZM66.1256 11.1431C65.427 11.1431 64.8253 10.9938 64.3206 10.6953C63.8189 10.3937 63.4311 9.97053 63.1572 9.42578C62.8864 8.87796 62.751 8.23627 62.751 7.50071C62.751 6.77438 62.8864 6.13423 63.1572 5.58026C63.4311 5.02628 63.8128 4.59387 64.3021 4.28303C64.7945 3.97218 65.3701 3.81676 66.0287 3.81676C66.4288 3.81676 66.8166 3.88293 67.192 4.01527C67.5675 4.14761 67.9045 4.35535 68.203 4.63849C68.5016 4.92164 68.737 5.28942 68.9094 5.74183C69.0817 6.19117 69.1679 6.73745 69.1679 7.38068V7.87003H63.5312V6.83594H67.8153C67.8153 6.47277 67.7414 6.15116 67.5937 5.87109C67.4459 5.58795 67.2382 5.36482 66.9704 5.2017C66.7058 5.03859 66.3949 4.95703 66.0379 4.95703C65.6501 4.95703 65.3116 5.05244 65.0223 5.24325C64.7361 5.43099 64.5145 5.6772 64.3575 5.98189C64.2036 6.2835 64.1267 6.61127 64.1267 6.9652V7.77308C64.1267 8.24704 64.2098 8.65021 64.376 8.9826C64.5452 9.31499 64.7807 9.56889 65.0823 9.74432C65.3839 9.91667 65.7363 10.0028 66.1395 10.0028C66.4011 10.0028 66.6396 9.96591 66.855 9.89205C67.0705 9.8151 67.2567 9.70123 67.4136 9.55043C67.5706 9.39962 67.6906 9.21342 67.7737 8.99183L69.0802 9.22727C68.9755 9.61198 68.7878 9.94898 68.517 10.2383C68.2492 10.5245 67.9122 10.7476 67.5059 10.9077C67.1028 11.0646 66.6427 11.1431 66.1256 11.1431ZM72.0797 6.78977V11H70.6994V3.90909H72.0243V5.06321H72.112C72.2752 4.68774 72.5306 4.38613 72.8784 4.15838C73.2292 3.93063 73.6709 3.81676 74.2033 3.81676C74.6865 3.81676 75.1097 3.91832 75.4728 4.12145C75.836 4.3215 76.1176 4.62003 76.3176 5.01705C76.5177 5.41406 76.6177 5.90495 76.6177 6.4897V11H75.2374V6.65589C75.2374 6.14193 75.1035 5.74029 74.8358 5.45099C74.568 5.15862 74.2002 5.01243 73.7324 5.01243C73.4123 5.01243 73.1277 5.08168 72.8784 5.22017C72.6322 5.35866 72.4367 5.56179 72.2921 5.82955C72.1505 6.09422 72.0797 6.4143 72.0797 6.78977ZM81.7789 3.90909V5.01705H77.9057V3.90909H81.7789ZM78.9444 2.21023H80.3248V8.91797C80.3248 9.18572 80.3648 9.38731 80.4448 9.52273C80.5248 9.65507 80.6279 9.74586 80.7541 9.7951C80.8833 9.84126 81.0234 9.86435 81.1742 9.86435C81.285 9.86435 81.3819 9.85665 81.465 9.84126C81.5481 9.82588 81.6127 9.81357 81.6589 9.80433L81.9082 10.9446C81.8282 10.9754 81.7143 11.0062 81.5666 11.0369C81.4189 11.0708 81.2342 11.0893 81.0126 11.0923C80.6494 11.0985 80.3109 11.0339 79.997 10.8984C79.6831 10.763 79.4292 10.5537 79.2353 10.2706C79.0414 9.98745 78.9444 9.63198 78.9444 9.20419V2.21023ZM45.8374 24H44.3232L47.7255 14.5455H49.3736L52.7759 24H51.2617L48.5888 16.2628H48.5149L45.8374 24ZM46.0913 20.2976H51.0032V21.4979H46.0913V20.2976ZM56.9031 24.1431C56.2167 24.1431 55.6258 23.9877 55.1303 23.6768C54.6379 23.3629 54.2594 22.9305 53.9947 22.3796C53.73 21.8287 53.5977 21.1978 53.5977 20.4869C53.5977 19.7667 53.7331 19.1312 54.0039 18.5803C54.2747 18.0263 54.6564 17.5939 55.1488 17.283C55.6412 16.9722 56.2214 16.8168 56.8892 16.8168C57.4278 16.8168 57.9079 16.9168 58.3295 17.1168C58.7512 17.3138 59.0913 17.5908 59.3498 17.9478C59.6114 18.3048 59.7668 18.7218 59.8161 19.1989H58.4727C58.3988 18.8665 58.2295 18.5803 57.9648 18.3402C57.7032 18.1001 57.3524 17.9801 56.9123 17.9801C56.5276 17.9801 56.1906 18.0817 55.9013 18.2848C55.6151 18.4848 55.3919 18.7711 55.2319 19.1435C55.0719 19.5128 54.9918 19.9498 54.9918 20.4545C54.9918 20.9716 55.0703 21.4179 55.2273 21.7933C55.3842 22.1688 55.6058 22.4596 55.892 22.6658C56.1813 22.872 56.5214 22.9751 56.9123 22.9751C57.1739 22.9751 57.4109 22.9274 57.6232 22.832C57.8387 22.7335 58.0187 22.5935 58.1634 22.4119C58.3111 22.2304 58.4142 22.0118 58.4727 21.7564H59.8161C59.7668 22.215 59.6175 22.6243 59.3683 22.9844C59.119 23.3445 58.785 23.6276 58.3665 23.8338C57.951 24.04 57.4632 24.1431 56.9031 24.1431ZM66.0795 26.6591V22.8967H65.9964C65.9133 23.0475 65.7932 23.2198 65.6363 23.4137C65.4824 23.6076 65.27 23.7769 64.9992 23.9215C64.7284 24.0662 64.3775 24.1385 63.9466 24.1385C63.3742 24.1385 62.8633 23.9923 62.414 23.6999C61.9677 23.4045 61.6169 22.9844 61.3614 22.4396C61.109 21.8918 60.9829 21.2347 60.9829 20.4684C60.9829 19.7021 61.1106 19.0465 61.366 18.5018C61.6246 17.957 61.9785 17.54 62.4278 17.2507C62.8772 16.9614 63.3865 16.8168 63.9559 16.8168C64.396 16.8168 64.7499 16.8906 65.0177 17.0384C65.2885 17.183 65.4978 17.3523 65.6455 17.5462C65.7963 17.7401 65.9133 17.9109 65.9964 18.0586H66.1118V16.9091H67.4598V26.6591H66.0795ZM64.2513 22.9613C64.6483 22.9613 64.9838 22.8567 65.2577 22.6474C65.5347 22.435 65.744 22.1411 65.8856 21.7656C66.0302 21.3902 66.1025 20.9531 66.1025 20.4545C66.1025 19.9621 66.0318 19.5312 65.8902 19.1619C65.7486 18.7926 65.5409 18.5049 65.267 18.2987C64.993 18.0924 64.6545 17.9893 64.2513 17.9893C63.8358 17.9893 63.4896 18.0971 63.2126 18.3125C62.9356 18.5279 62.7264 18.8219 62.5848 19.1942C62.4463 19.5666 62.377 19.9867 62.377 20.4545C62.377 20.9285 62.4478 21.3548 62.5894 21.7333C62.731 22.1119 62.9403 22.4119 63.2172 22.6335C63.4973 22.852 63.842 22.9613 64.2513 22.9613ZM73.8074 21.0593V16.9091H75.1924V24H73.8351V22.772H73.7613C73.5982 23.1506 73.3366 23.466 72.9765 23.7184C72.6195 23.9677 72.1747 24.0923 71.6423 24.0923C71.1868 24.0923 70.7836 23.9923 70.4328 23.7923C70.085 23.5891 69.8111 23.2891 69.6111 22.892C69.4141 22.495 69.3156 22.0041 69.3156 21.4194V16.9091H70.6959V21.2532C70.6959 21.7364 70.8298 22.1211 71.0976 22.4073C71.3653 22.6935 71.7131 22.8366 72.1409 22.8366C72.3994 22.8366 72.6564 22.772 72.9118 22.6428C73.1704 22.5135 73.3843 22.3181 73.5535 22.0565C73.7259 21.7949 73.8105 21.4625 73.8074 21.0593ZM77.0471 24V16.9091H78.4274V24H77.0471ZM77.7441 15.815C77.5041 15.815 77.2979 15.735 77.1255 15.5749C76.9563 15.4118 76.8716 15.2179 76.8716 14.9933C76.8716 14.7655 76.9563 14.5716 77.1255 14.4116C77.2979 14.2485 77.5041 14.1669 77.7441 14.1669C77.9842 14.1669 78.1889 14.2485 78.3581 14.4116C78.5305 14.5716 78.6167 14.7655 78.6167 14.9933C78.6167 15.2179 78.5305 15.4118 78.3581 15.5749C78.1889 15.735 77.9842 15.815 77.7441 15.815ZM85.5979 18.6403L84.3469 18.8619C84.2945 18.7018 84.2114 18.5495 84.0976 18.4048C83.9868 18.2602 83.836 18.1417 83.6452 18.0494C83.4543 17.957 83.2158 17.9109 82.9296 17.9109C82.5387 17.9109 82.2125 17.9986 81.9509 18.174C81.6893 18.3464 81.5585 18.5695 81.5585 18.8434C81.5585 19.0804 81.6462 19.2712 81.8216 19.4158C81.9971 19.5605 82.2802 19.679 82.6711 19.7713L83.7975 20.0298C84.45 20.1806 84.9362 20.413 85.2563 20.7269C85.5764 21.0408 85.7364 21.4486 85.7364 21.9503C85.7364 22.375 85.6133 22.7536 85.3671 23.0859C85.124 23.4152 84.7839 23.6738 84.3469 23.8615C83.9129 24.0492 83.4097 24.1431 82.8373 24.1431C82.0432 24.1431 81.3954 23.9738 80.8937 23.6353C80.3921 23.2937 80.0843 22.8089 79.9704 22.1811L81.3046 21.978C81.3877 22.3258 81.5585 22.5889 81.817 22.7674C82.0756 22.9428 82.4126 23.0305 82.828 23.0305C83.2805 23.0305 83.6421 22.9367 83.9129 22.7489C84.1837 22.5581 84.3192 22.3258 84.3192 22.0518C84.3192 21.8303 84.2361 21.6441 84.0699 21.4933C83.9068 21.3424 83.6559 21.2286 83.3174 21.1516L82.1171 20.8885C81.4554 20.7377 80.9661 20.4976 80.6491 20.1683C80.3351 19.839 80.1782 19.422 80.1782 18.9173C80.1782 18.4987 80.2951 18.1325 80.529 17.8185C80.7629 17.5046 81.0861 17.2599 81.4985 17.0845C81.9109 16.906 82.3833 16.8168 82.9157 16.8168C83.6821 16.8168 84.2853 16.983 84.7254 17.3153C85.1655 17.6446 85.4564 18.0863 85.5979 18.6403ZM87.2541 24V16.9091H88.6344V24H87.2541ZM87.9512 15.815C87.7111 15.815 87.5049 15.735 87.3326 15.5749C87.1633 15.4118 87.0787 15.2179 87.0787 14.9933C87.0787 14.7655 87.1633 14.5716 87.3326 14.4116C87.5049 14.2485 87.7111 14.1669 87.9512 14.1669C88.1912 14.1669 88.3959 14.2485 88.5652 14.4116C88.7375 14.5716 88.8237 14.7655 88.8237 14.9933C88.8237 15.2179 88.7375 15.4118 88.5652 15.5749C88.3959 15.735 88.1912 15.815 87.9512 15.815ZM93.8014 16.9091V18.017H89.9282V16.9091H93.8014ZM90.9669 15.2102H92.3472V21.918C92.3472 22.1857 92.3872 22.3873 92.4672 22.5227C92.5473 22.6551 92.6504 22.7459 92.7765 22.7951C92.9058 22.8413 93.0458 22.8643 93.1966 22.8643C93.3074 22.8643 93.4044 22.8567 93.4875 22.8413C93.5706 22.8259 93.6352 22.8136 93.6814 22.8043L93.9307 23.9446C93.8506 23.9754 93.7368 24.0062 93.589 24.0369C93.4413 24.0708 93.2567 24.0893 93.0351 24.0923C92.6719 24.0985 92.3334 24.0339 92.0194 23.8984C91.7055 23.763 91.4516 23.5537 91.2577 23.2706C91.0638 22.9875 90.9669 22.632 90.9669 22.2042V15.2102ZM95.3283 24V16.9091H96.7086V24H95.3283ZM96.0254 15.815C95.7853 15.815 95.5791 15.735 95.4068 15.5749C95.2375 15.4118 95.1529 15.2179 95.1529 14.9933C95.1529 14.7655 95.2375 14.5716 95.4068 14.4116C95.5791 14.2485 95.7853 14.1669 96.0254 14.1669C96.2654 14.1669 96.4701 14.2485 96.6394 14.4116C96.8117 14.5716 96.8979 14.7655 96.8979 14.9933C96.8979 15.2179 96.8117 15.4118 96.6394 15.5749C96.4701 15.735 96.2654 15.815 96.0254 15.815ZM101.552 24.1431C100.888 24.1431 100.308 23.9908 99.8121 23.6861C99.3166 23.3814 98.9318 22.9551 98.6579 22.4073C98.384 21.8595 98.2471 21.2193 98.2471 20.4869C98.2471 19.7513 98.384 19.1081 98.6579 18.5572C98.9318 18.0063 99.3166 17.5785 99.8121 17.2738C100.308 16.9691 100.888 16.8168 101.552 16.8168C102.217 16.8168 102.797 16.9691 103.293 17.2738C103.788 17.5785 104.173 18.0063 104.447 18.5572C104.721 19.1081 104.858 19.7513 104.858 20.4869C104.858 21.2193 104.721 21.8595 104.447 22.4073C104.173 22.9551 103.788 23.3814 103.293 23.6861C102.797 23.9908 102.217 24.1431 101.552 24.1431ZM101.557 22.9844C101.988 22.9844 102.345 22.8705 102.628 22.6428C102.911 22.415 103.121 22.1119 103.256 21.7333C103.394 21.3548 103.464 20.9377 103.464 20.4822C103.464 20.0298 103.394 19.6143 103.256 19.2358C103.121 18.8542 102.911 18.5479 102.628 18.3171C102.345 18.0863 101.988 17.9709 101.557 17.9709C101.123 17.9709 100.763 18.0863 100.477 18.3171C100.194 18.5479 99.9829 18.8542 99.8444 19.2358C99.709 19.6143 99.6412 20.0298 99.6412 20.4822C99.6412 20.9377 99.709 21.3548 99.8444 21.7333C99.9829 22.1119 100.194 22.415 100.477 22.6428C100.763 22.8705 101.123 22.9844 101.557 22.9844ZM107.779 19.7898V24H106.399V16.9091H107.724V18.0632H107.811C107.974 17.6877 108.23 17.3861 108.578 17.1584C108.928 16.9306 109.37 16.8168 109.903 16.8168C110.386 16.8168 110.809 16.9183 111.172 17.1214C111.535 17.3215 111.817 17.62 112.017 18.017C112.217 18.4141 112.317 18.9049 112.317 19.4897V24H110.937V19.6559C110.937 19.1419 110.803 18.7403 110.535 18.451C110.267 18.1586 109.899 18.0124 109.432 18.0124C109.112 18.0124 108.827 18.0817 108.578 18.2202C108.331 18.3587 108.136 18.5618 107.991 18.8295C107.85 19.0942 107.779 19.4143 107.779 19.7898ZM45.0387 27.5455H46.7699L49.7798 34.8949H49.8906L52.9006 27.5455H54.6317V37H53.2745V30.1584H53.1868L50.3984 36.9862H49.272L46.4837 30.1538H46.396V37H45.0387V27.5455ZM58.6585 37.157C58.2091 37.157 57.8029 37.0739 57.4397 36.9077C57.0766 36.7384 56.7888 36.4937 56.5764 36.1737C56.3672 35.8536 56.2625 35.4612 56.2625 34.9964C56.2625 34.5964 56.3395 34.267 56.4933 34.0085C56.6472 33.75 56.855 33.5453 57.1166 33.3945C57.3782 33.2437 57.6705 33.1299 57.9937 33.0529C58.3169 32.976 58.6462 32.9175 58.9816 32.8775C59.4063 32.8282 59.751 32.7882 60.0157 32.7575C60.2804 32.7236 60.4727 32.6697 60.5928 32.5959C60.7128 32.522 60.7728 32.402 60.7728 32.2358V32.2035C60.7728 31.8003 60.6589 31.4879 60.4312 31.2663C60.2065 31.0447 59.8711 30.9339 59.4248 30.9339C58.9601 30.9339 58.5938 31.037 58.3261 31.2433C58.0614 31.4464 57.8783 31.6726 57.7767 31.9219L56.4795 31.6264C56.6334 31.1955 56.858 30.8478 57.1535 30.5831C57.452 30.3153 57.7952 30.1214 58.183 30.0014C58.5708 29.8783 58.9785 29.8168 59.4063 29.8168C59.6895 29.8168 59.9896 29.8506 60.3066 29.9183C60.6266 29.983 60.9252 30.103 61.2021 30.2784C61.4822 30.4538 61.7115 30.7047 61.89 31.0309C62.0685 31.354 62.1578 31.7741 62.1578 32.2912V37H60.8097V36.0305H60.7544C60.6651 36.209 60.5312 36.3845 60.3527 36.5568C60.1742 36.7292 59.9449 36.8723 59.6649 36.9862C59.3848 37.1 59.0493 37.157 58.6585 37.157ZM58.9585 36.049C59.3402 36.049 59.6664 35.9736 59.9372 35.8228C60.2111 35.672 60.4189 35.475 60.5605 35.2319C60.7051 34.9857 60.7774 34.7225 60.7774 34.4425V33.5284C60.7282 33.5777 60.6328 33.6238 60.4912 33.6669C60.3527 33.7069 60.1942 33.7423 60.0157 33.7731C59.8372 33.8008 59.6633 33.8269 59.4941 33.8516C59.3248 33.8731 59.1832 33.8916 59.0693 33.907C58.8016 33.9408 58.5569 33.9978 58.3353 34.0778C58.1168 34.1578 57.9414 34.2732 57.809 34.424C57.6798 34.5717 57.6151 34.7687 57.6151 35.0149C57.6151 35.3565 57.7413 35.6151 57.9937 35.7905C58.2461 35.9628 58.5677 36.049 58.9585 36.049ZM65.3766 32.7898V37H63.9963V29.9091H65.3212V31.0632H65.4089C65.572 30.6877 65.8275 30.3861 66.1752 30.1584C66.5261 29.9306 66.9677 29.8168 67.5002 29.8168C67.9834 29.8168 68.4065 29.9183 68.7697 30.1214C69.1329 30.3215 69.4145 30.62 69.6145 31.017C69.8146 31.4141 69.9146 31.9049 69.9146 32.4897V37H68.5343V32.6559C68.5343 32.1419 68.4004 31.7403 68.1326 31.451C67.8649 31.1586 67.4971 31.0124 67.0293 31.0124C66.7092 31.0124 66.4245 31.0817 66.1752 31.2202C65.929 31.3587 65.7336 31.5618 65.589 31.8295C65.4474 32.0942 65.3766 32.4143 65.3766 32.7898ZM73.8294 37.157C73.38 37.157 72.9738 37.0739 72.6106 36.9077C72.2475 36.7384 71.9597 36.4937 71.7473 36.1737C71.5381 35.8536 71.4334 35.4612 71.4334 34.9964C71.4334 34.5964 71.5104 34.267 71.6642 34.0085C71.8181 33.75 72.0259 33.5453 72.2875 33.3945C72.5491 33.2437 72.8414 33.1299 73.1646 33.0529C73.4877 32.976 73.8171 32.9175 74.1525 32.8775C74.5772 32.8282 74.9219 32.7882 75.1866 32.7575C75.4513 32.7236 75.6436 32.6697 75.7637 32.5959C75.8837 32.522 75.9437 32.402 75.9437 32.2358V32.2035C75.9437 31.8003 75.8298 31.4879 75.6021 31.2663C75.3774 31.0447 75.042 30.9339 74.5957 30.9339C74.131 30.9339 73.7647 31.037 73.497 31.2433C73.2323 31.4464 73.0492 31.6726 72.9476 31.9219L71.6504 31.6264C71.8043 31.1955 72.0289 30.8478 72.3244 30.5831C72.6229 30.3153 72.9661 30.1214 73.3539 30.0014C73.7417 29.8783 74.1494 29.8168 74.5772 29.8168C74.8604 29.8168 75.1605 29.8506 75.4775 29.9183C75.7975 29.983 76.0961 30.103 76.373 30.2784C76.6531 30.4538 76.8824 30.7047 77.0609 31.0309C77.2394 31.354 77.3287 31.7741 77.3287 32.2912V37H75.9806V36.0305H75.9252C75.836 36.209 75.7021 36.3845 75.5236 36.5568C75.3451 36.7292 75.1158 36.8723 74.8358 36.9862C74.5557 37.1 74.2202 37.157 73.8294 37.157ZM74.1294 36.049C74.5111 36.049 74.8373 35.9736 75.1081 35.8228C75.382 35.672 75.5898 35.475 75.7314 35.2319C75.876 34.9857 75.9483 34.7225 75.9483 34.4425V33.5284C75.8991 33.5777 75.8037 33.6238 75.6621 33.6669C75.5236 33.7069 75.3651 33.7423 75.1866 33.7731C75.0081 33.8008 74.8342 33.8269 74.665 33.8516C74.4957 33.8731 74.3541 33.8916 74.2402 33.907C73.9725 33.9408 73.7278 33.9978 73.5062 34.0778C73.2877 34.1578 73.1123 34.2732 72.9799 34.424C72.8507 34.5717 72.786 34.7687 72.786 35.0149C72.786 35.3565 72.9122 35.6151 73.1646 35.7905C73.417 35.9628 73.7386 36.049 74.1294 36.049ZM82.1402 39.8068C81.577 39.8068 81.0922 39.733 80.686 39.5852C80.2828 39.4375 79.9535 39.2421 79.6981 38.9989C79.4426 38.7558 79.2518 38.4896 79.1256 38.2003L80.3121 37.7109C80.3952 37.8464 80.5059 37.9895 80.6444 38.1403C80.786 38.2942 80.9768 38.425 81.2169 38.5327C81.46 38.6404 81.7724 38.6942 82.154 38.6942C82.6772 38.6942 83.1096 38.5665 83.4513 38.3111C83.7929 38.0587 83.9637 37.6555 83.9637 37.1016V35.7074H83.876C83.7929 35.8582 83.6729 36.0259 83.5159 36.2106C83.362 36.3952 83.1497 36.5553 82.8788 36.6907C82.608 36.8261 82.2556 36.8938 81.8216 36.8938C81.2615 36.8938 80.7568 36.763 80.3074 36.5014C79.8612 36.2367 79.5073 35.8474 79.2456 35.3335C78.9871 34.8164 78.8579 34.1809 78.8579 33.4268C78.8579 32.6728 78.9856 32.0265 79.241 31.4879C79.4996 30.9493 79.8535 30.5369 80.3028 30.2507C80.7522 29.9614 81.2615 29.8168 81.8309 29.8168C82.271 29.8168 82.6265 29.8906 82.8973 30.0384C83.1681 30.183 83.3789 30.3523 83.5297 30.5462C83.6836 30.7401 83.8021 30.9109 83.8852 31.0586H83.9868V29.9091H85.3394V37.157C85.3394 37.7663 85.1978 38.2665 84.9147 38.6573C84.6315 39.0482 84.2484 39.3375 83.7652 39.5252C83.2851 39.7129 82.7434 39.8068 82.1402 39.8068ZM82.1263 35.7489C82.5233 35.7489 82.8588 35.6566 83.1327 35.4719C83.4097 35.2842 83.619 35.0165 83.7606 34.6687C83.9052 34.3178 83.9775 33.8977 83.9775 33.4084C83.9775 32.9313 83.9068 32.5112 83.7652 32.1481C83.6236 31.7849 83.4159 31.5018 83.142 31.2987C82.868 31.0924 82.5295 30.9893 82.1263 30.9893C81.7108 30.9893 81.3646 31.0971 81.0876 31.3125C80.8106 31.5249 80.6014 31.8142 80.4598 32.1804C80.3213 32.5466 80.252 32.956 80.252 33.4084C80.252 33.8731 80.3228 34.2809 80.4644 34.6317C80.606 34.9826 80.8153 35.2565 81.0922 35.4535C81.3723 35.6504 81.717 35.7489 82.1263 35.7489ZM90.2467 37.1431C89.5481 37.1431 88.9464 36.9938 88.4417 36.6953C87.94 36.3937 87.5522 35.9705 87.2783 35.4258C87.0075 34.878 86.8721 34.2363 86.8721 33.5007C86.8721 32.7744 87.0075 32.1342 87.2783 31.5803C87.5522 31.0263 87.9339 30.5939 88.4232 30.283C88.9156 29.9722 89.4912 29.8168 90.1498 29.8168C90.5499 29.8168 90.9376 29.8829 91.3131 30.0153C91.6886 30.1476 92.0256 30.3554 92.3241 30.6385C92.6227 30.9216 92.8581 31.2894 93.0305 31.7418C93.2028 32.1912 93.289 32.7375 93.289 33.3807V33.87H87.6523V32.8359H91.9363C91.9363 32.4728 91.8625 32.1512 91.7148 31.8711C91.567 31.5879 91.3593 31.3648 91.0915 31.2017C90.8269 31.0386 90.516 30.957 90.159 30.957C89.7712 30.957 89.4327 31.0524 89.1434 31.2433C88.8572 31.431 88.6356 31.6772 88.4786 31.9819C88.3247 32.2835 88.2478 32.6113 88.2478 32.9652V33.7731C88.2478 34.247 88.3309 34.6502 88.4971 34.9826C88.6663 35.315 88.9018 35.5689 89.2034 35.7443C89.505 35.9167 89.8574 36.0028 90.2606 36.0028C90.5222 36.0028 90.7607 35.9659 90.9761 35.892C91.1916 35.8151 91.3778 35.7012 91.5347 35.5504C91.6917 35.3996 91.8117 35.2134 91.8948 34.9918L93.2013 35.2273C93.0966 35.612 92.9089 35.949 92.6381 36.2383C92.3703 36.5245 92.0333 36.7476 91.627 36.9077C91.2239 37.0646 90.7638 37.1431 90.2467 37.1431ZM94.8205 37V29.9091H96.1454V31.0632H96.2331C96.3809 30.6723 96.6225 30.3677 96.9579 30.1491C97.2934 29.9276 97.695 29.8168 98.1628 29.8168C98.6368 29.8168 99.0338 29.9276 99.3539 30.1491C99.677 30.3707 99.9155 30.6754 100.069 31.0632H100.143C100.313 30.6847 100.582 30.383 100.951 30.1584C101.32 29.9306 101.761 29.8168 102.271 29.8168C102.915 29.8168 103.439 30.0183 103.846 30.4215C104.255 30.8247 104.46 31.4325 104.46 32.245V37H103.079V32.3743C103.079 31.8942 102.949 31.5464 102.687 31.331C102.425 31.1155 102.113 31.0078 101.75 31.0078C101.3 31.0078 100.951 31.1463 100.702 31.4233C100.453 31.6972 100.328 32.0496 100.328 32.4805V37H98.9522V32.2866C98.9522 31.9019 98.8322 31.5926 98.5922 31.3587C98.3521 31.1248 98.0397 31.0078 97.655 31.0078C97.3934 31.0078 97.1518 31.0771 96.9302 31.2156C96.7117 31.351 96.5347 31.5402 96.3993 31.7834C96.267 32.0265 96.2008 32.3081 96.2008 32.6282V37H94.8205ZM109.366 37.1431C108.667 37.1431 108.066 36.9938 107.561 36.6953C107.059 36.3937 106.671 35.9705 106.397 35.4258C106.127 34.878 105.991 34.2363 105.991 33.5007C105.991 32.7744 106.127 32.1342 106.397 31.5803C106.671 31.0263 107.053 30.5939 107.542 30.283C108.035 29.9722 108.61 29.8168 109.269 29.8168C109.669 29.8168 110.057 29.8829 110.432 30.0153C110.808 30.1476 111.145 30.3554 111.443 30.6385C111.742 30.9216 111.977 31.2894 112.15 31.7418C112.322 32.1912 112.408 32.7375 112.408 33.3807V33.87H106.771V32.8359H111.055C111.055 32.4728 110.982 32.1512 110.834 31.8711C110.686 31.5879 110.478 31.3648 110.211 31.2017C109.946 31.0386 109.635 30.957 109.278 30.957C108.89 30.957 108.552 31.0524 108.263 31.2433C107.976 31.431 107.755 31.6772 107.598 31.9819C107.444 32.2835 107.367 32.6113 107.367 32.9652V33.7731C107.367 34.247 107.45 34.6502 107.616 34.9826C107.785 35.315 108.021 35.5689 108.323 35.7443C108.624 35.9167 108.977 36.0028 109.38 36.0028C109.641 36.0028 109.88 35.9659 110.095 35.892C110.311 35.8151 110.497 35.7012 110.654 35.5504C110.811 35.3996 110.931 35.2134 111.014 34.9918L112.32 35.2273C112.216 35.612 112.028 35.949 111.757 36.2383C111.489 36.5245 111.152 36.7476 110.746 36.9077C110.343 37.0646 109.883 37.1431 109.366 37.1431ZM115.32 32.7898V37H113.94V29.9091H115.265V31.0632H115.352C115.515 30.6877 115.771 30.3861 116.119 30.1584C116.469 29.9306 116.911 29.8168 117.444 29.8168C117.927 29.8168 118.35 29.9183 118.713 30.1214C119.076 30.3215 119.358 30.62 119.558 31.017C119.758 31.4141 119.858 31.9049 119.858 32.4897V37H118.478V32.6559C118.478 32.1419 118.344 31.7403 118.076 31.451C117.808 31.1586 117.44 31.0124 116.973 31.0124C116.653 31.0124 116.368 31.0817 116.119 31.2202C115.872 31.3587 115.677 31.5618 115.532 31.8295C115.391 32.0942 115.32 32.4143 115.32 32.7898ZM125.019 29.9091V31.017H121.146V29.9091H125.019ZM122.185 28.2102H123.565V34.918C123.565 35.1857 123.605 35.3873 123.685 35.5227C123.765 35.6551 123.868 35.7459 123.994 35.7951C124.124 35.8413 124.264 35.8643 124.414 35.8643C124.525 35.8643 124.622 35.8567 124.705 35.8413C124.788 35.8259 124.853 35.8136 124.899 35.8043L125.148 36.9446C125.068 36.9754 124.955 37.0062 124.807 37.0369C124.659 37.0708 124.474 37.0893 124.253 37.0923C123.89 37.0985 123.551 37.0339 123.237 36.8984C122.923 36.763 122.669 36.5537 122.475 36.2706C122.282 35.9875 122.185 35.632 122.185 35.2042V28.2102Z" fill="#023565"/>
<defs>
<clipPath id="clip0_657_24309">
<rect width="38" height="38" fill="white" transform="translate(0 0.5)"/>
</clipPath>
</defs>
</svg>
