<svg width="24" height="25" viewBox="0 0 24 25" fill="none" xmlns="http://www.w3.org/2000/svg">
<path d="M10.8048 21.2188C10.4638 21.2188 10.1693 21.1056 9.92134 20.8793C9.67318 20.6531 9.52218 20.3746 9.46834 20.0438L9.22409 18.1725C8.95626 18.0828 8.68159 17.9573 8.40009 17.7958C8.11876 17.6341 7.86718 17.461 7.64534 17.2765L5.91259 18.013C5.59842 18.1515 5.28276 18.1649 4.96559 18.0533C4.64826 17.9418 4.40176 17.7393 4.22609 17.4458L3.09909 15.4918C2.92343 15.1983 2.87284 14.8877 2.94734 14.56C3.02168 14.2325 3.19218 13.9623 3.45884 13.7495L4.95684 12.6245C4.93384 12.4758 4.91751 12.3265 4.90784 12.1765C4.89818 12.0265 4.89334 11.8771 4.89334 11.7283C4.89334 11.5861 4.89818 11.4416 4.90784 11.2948C4.91751 11.1479 4.93384 10.9873 4.95684 10.813L3.45884 9.688C3.19218 9.47517 3.02326 9.20334 2.95209 8.8725C2.88093 8.54183 2.93318 8.22967 3.10884 7.936L4.22609 6.011C4.40176 5.72383 4.64826 5.52292 4.96559 5.40825C5.28276 5.29342 5.59842 5.30525 5.91259 5.44375L7.63559 6.17075C7.87676 5.97975 8.13418 5.80508 8.40784 5.64675C8.68151 5.48842 8.95042 5.36117 9.21459 5.265L9.46834 3.39375C9.52218 3.06292 9.67318 2.78442 9.92134 2.55825C10.1693 2.33192 10.4638 2.21875 10.8048 2.21875H13.0203C13.3613 2.21875 13.6558 2.33192 13.9038 2.55825C14.152 2.78442 14.303 3.06292 14.3568 3.39375L14.6011 5.2745C14.9011 5.3835 15.1725 5.51075 15.4153 5.65625C15.6583 5.80175 15.9036 5.97325 16.1511 6.17075L17.9223 5.44375C18.2363 5.30525 18.552 5.29342 18.8693 5.40825C19.1867 5.52292 19.4331 5.72383 19.6086 6.011L20.7261 7.94575C20.9018 8.23925 20.9523 8.54983 20.8778 8.8775C20.8035 9.205 20.633 9.47517 20.3663 9.688L18.8298 10.8418C18.8657 11.0033 18.8853 11.1543 18.8886 11.2948C18.8918 11.4351 18.8933 11.5764 18.8933 11.7188C18.8933 11.8546 18.8901 11.9928 18.8836 12.1333C18.8773 12.2736 18.8543 12.4342 18.8146 12.615L20.3221 13.7495C20.5888 13.9623 20.7609 14.2325 20.8386 14.56C20.9161 14.8877 20.867 15.1983 20.6913 15.4918L19.5586 17.436C19.3831 17.7297 19.1351 17.9323 18.8146 18.0438C18.4941 18.1553 18.1768 18.1418 17.8626 18.0033L16.1511 17.2668C15.9036 17.4643 15.651 17.6389 15.3933 17.7908C15.1357 17.9428 14.8716 18.0668 14.6011 18.163L14.3568 20.0438C14.303 20.3746 14.152 20.6531 13.9038 20.8793C13.6558 21.1056 13.3613 21.2188 13.0203 21.2188H10.8048ZM11.9241 14.7188C12.7561 14.7188 13.4641 14.4268 14.0481 13.8428C14.6321 13.2588 14.9241 12.5508 14.9241 11.7188C14.9241 10.8868 14.6321 10.1788 14.0481 9.59475C13.4641 9.01075 12.7561 8.71875 11.9241 8.71875C11.0818 8.71875 10.3712 9.01075 9.79234 9.59475C9.21351 10.1788 8.92409 10.8868 8.92409 11.7188C8.92409 12.5508 9.21351 13.2588 9.79234 13.8428C10.3712 14.4268 11.0818 14.7188 11.9241 14.7188Z" fill="#171719"/>
</svg>
